<svg width="26" height="20" viewBox="0 0 26 20" fill="none" xmlns="http://www.w3.org/2000/svg">
<path d="M3.08792 18.8502C2.80612 18.8502 2.53855 18.7895 2.29731 18.6817L10.206 10.8175L11.2362 11.8419C11.7057 12.309 12.3321 12.5663 13 12.5663C13.6679 12.5663 14.2943 12.309 14.7638 11.8419L15.794 10.8175L23.7027 18.6817C23.4614 18.7894 23.1939 18.8502 22.9121 18.8502H3.08792ZM1.4292 17.9098C1.26424 17.6316 1.16927 17.3083 1.16927 16.9637V3.0363C1.16927 2.69166 1.26424 2.36837 1.4292 2.09018L9.3838 9.99998L1.4292 17.9098ZM22.9121 1.14977C23.1939 1.14977 23.4614 1.21053 23.7027 1.3183L15.3834 9.59078C15.3832 9.59078 15.3831 9.59126 15.3829 9.59126C15.3827 9.59126 15.3825 9.59173 15.3823 9.59173L13.9324 11.0335C13.6841 11.2808 13.353 11.4166 13 11.4166C12.647 11.4166 12.3158 11.2808 12.0675 11.0335L10.618 9.59221C10.6176 9.59173 10.6174 9.59173 10.6171 9.59126C10.6169 9.59126 10.6167 9.59078 10.6165 9.59078L2.29729 1.3183C2.53854 1.21054 2.8061 1.14977 3.0879 1.14977H22.9121H22.9121ZM16.6162 9.99999L24.5708 2.09019C24.7358 2.36838 24.8308 2.69167 24.8308 3.03632V16.9637C24.8308 17.3083 24.7358 17.6316 24.5708 17.9098L16.6162 9.99999ZM25.042 0.841202C25.036 0.835027 25.0304 0.828384 25.024 0.821742C25.0085 0.807022 24.9922 0.79278 24.9755 0.779963C24.4282 0.295747 23.7046 0 22.9121 0H3.08792C2.29537 0 1.57186 0.295759 1.02453 0.779963C1.00782 0.79278 0.991507 0.807022 0.976004 0.821742C0.969585 0.827917 0.964035 0.835038 0.957952 0.841202C0.368419 1.39472 0 2.17374 0 3.03632V16.9637C0 17.8262 0.368419 18.6053 0.957952 19.1588C0.964035 19.165 0.969585 19.1721 0.976004 19.1783C0.991507 19.193 1.00773 19.2072 1.02443 19.22C1.57171 19.7043 2.29532 20 3.08792 20H22.9121C23.7047 20 24.4283 19.7043 24.9756 19.22C24.9923 19.2072 25.0085 19.193 25.024 19.1783C25.0304 19.1721 25.036 19.165 25.042 19.1588C25.6316 18.6053 26 17.8263 26 16.9637V3.03632C26 2.17375 25.6316 1.39473 25.042 0.841202Z" fill="#333333"/>
</svg>
