<svg width="24" height="24" viewBox="0 0 24 24" fill="none" xmlns="http://www.w3.org/2000/svg">
<path fill-rule="evenodd" clip-rule="evenodd" d="M12 0C5.37226 0 0 5.37226 0 12C0 18.6277 5.37226 24 12 24C18.6277 24 24 18.6277 24 12C24 5.37226 18.6271 0 12 0ZM15.1763 7.2153H13.9337C13.2471 7.2153 12.5271 7.64022 12.5271 8.39299V10.4212H15.0786L14.6537 13.1031H12.5278V19.7431H9.64976V13.1031H7.22944V10.4212H9.64976V8.42578C9.64976 6.43039 10.8274 4.76284 12.9533 4.89334L15.1776 4.9917V7.21594L15.1763 7.2153Z" fill="#333333"/>
</svg>
