<svg width="24" height="24" viewBox="0 0 24 24" fill="none" xmlns="http://www.w3.org/2000/svg">
<path fill-rule="evenodd" clip-rule="evenodd" d="M15.1821 6.2716H8.81791C7.38501 6.2716 6.21889 7.43773 6.21889 8.87063V15.2014C6.21889 16.6343 7.38501 17.8004 8.81791 17.8004H15.1821C16.615 17.8004 17.7811 16.6343 17.7811 15.2014V8.87063C17.7811 7.43773 16.615 6.2716 15.1821 6.2716ZM12.0167 15.8346H11.9833C9.91718 15.8346 8.21814 14.1355 8.21814 12.036C8.21814 9.93647 9.91718 8.23742 11.9833 8.23742H12.0167C14.0828 8.23742 15.8153 9.96989 15.8153 12.036C15.8153 14.1021 14.0828 15.8346 12.0167 15.8346ZM15.7484 9.10334C15.2817 9.10334 14.9487 8.73692 14.9487 8.30364C14.9487 7.87036 15.2817 7.50394 15.7484 7.50394C16.1817 7.50394 16.5481 7.87036 16.5481 8.30364C16.5481 8.73692 16.1817 9.10334 15.7484 9.10334ZM14.5155 12.036C14.5155 13.4355 13.3828 14.5682 12.0167 14.5682H11.9833C10.6172 14.5682 9.48454 13.4355 9.48454 12.036C9.48454 10.6365 10.6172 9.53726 11.9833 9.53726H12.0167C13.3828 9.53726 14.5155 10.67 14.5155 12.036ZM12 0C5.37226 0 0 5.37226 0 12C0 18.6277 5.37226 24 12 24C18.6277 24 24 18.6277 24 12C24 5.37226 18.6271 0 12 0ZM18.9807 15.2348C18.9807 17.3009 17.2816 18.9999 15.2155 18.9999H8.78449C6.71838 18.9999 5.01934 17.3009 5.01934 15.2348V8.8372C5.01934 6.77109 6.71838 5.07205 8.78449 5.07205H15.2155C17.2816 5.07205 18.9807 6.77109 18.9807 8.8372V15.2348Z" fill="#333333"/>
</svg>
