<svg width="24" height="24" viewBox="0 0 24 24" fill="none" xmlns="http://www.w3.org/2000/svg">
<path fill-rule="evenodd" clip-rule="evenodd" d="M23.9994 12C23.9994 18.6271 18.6271 24 11.9994 24C5.37162 24 0 18.6271 0 12C0 5.3729 5.37226 0 12 0C18.6277 0 24 5.37226 24 12H23.9994ZM6.04275 17.866H8.42771V9.85804H6.04275V17.866ZM7.22044 5.79461C6.42524 5.79461 5.80747 6.4426 5.80747 7.23716C5.80747 8.03171 6.42589 8.6797 7.22044 8.6797C8.015 8.6797 8.66299 8.03171 8.66299 7.23716C8.66299 6.4426 8.015 5.79461 7.22044 5.79461ZM9.84068 17.866H12.1961V13.5383C12.2256 12.6255 12.9913 11.919 13.9035 11.919C14.8163 11.919 15.4341 12.6255 15.4637 13.5383V17.1299V17.866H17.819V12.4783C17.819 11.0062 16.6118 9.76997 15.1107 9.76997H14.4627C13.5203 9.76997 12.6962 10.2412 12.1961 10.9772V9.85868H9.84068V17.8666V17.866Z" fill="#333333"/>
</svg>
