<?xml version="1.0" encoding="UTF-8"?>
<svg id="Layer_2" data-name="Layer 2" xmlns="http://www.w3.org/2000/svg" viewBox="0 0 300 300">
  <defs>
    <style>
      .cls-1 {
        fill: #333;
      }
    </style>
  </defs>
  <path class="cls-1" d="M173.02,156.86c13.5,0,23.11,2.39,28.81,9.89,5.7,7.5,6.96,16.67,3.76,27.81-2.5,8.72-6.87,15.32-13.11,19.95-6.24,4.63-14.48,5.97-24.3,5.97-1.89,0-5.62-.05-7.9-.05v-63.58h12.73ZM107.51,85.51c-6.23,4.63-10.6,11.24-13.1,19.96-3.2,11.15-1.94,20.28,3.76,27.79,5.7,7.49,15.31,9.89,28.81,9.89h12.73v-63.58c-2.29,0-6.02-.04-7.9-.04-9.82,0-18.07,1.34-24.3,5.98ZM300,150c0,82.84-67.16,150-150,150S0,232.84,0,150,67.16,0,150,0s150,67.16,150,150ZM264.12,74.43l-.05-4.43h-38.16l-47.82,77.71h-17.81v-45.42c0-6.44.43-11.42,1.45-14.96,1.03-3.61,3.49-6.67,7.16-9.18,3.67-2.51,8.3-3.8,13.76-3.72l-.1-4.43h-59.47c-17.43,0-30.94,3.36-40.53,9.96-9.58,6.6-15.3,17.77-15.3,29.77s1.64,16.25,7.45,24.53c6.52,9.3,14.71,13.93,27.8,16.21l-28.95,46.76c-7.06,11.47-12.97,18.93-17.73,22.38-4.76,3.45-11.41,5.49-19.95,5.96l.04,4.43h38.17l47.82-77.71h17.81v45.42c0,6.44-.43,11.43-1.45,14.96-1.04,3.61-3.49,6.67-7.16,9.18-3.67,2.52-8.29,3.8-13.76,3.72l.1,4.43h59.47c17.44,0,30.94-3.36,40.53-9.97,9.59-6.59,15.31-17.77,15.31-29.76s-1.64-16.25-7.45-24.53c-6.52-9.3-14.72-13.93-27.8-16.21l28.95-46.76c7.06-11.47,12.97-18.99,17.73-22.45,4.76-3.45,11.41-5.43,19.94-5.9Z"/>
</svg>